<?xml version="1.0" encoding="UTF-8" standalone="no"?>
<!-- Generator: Adobe Illustrator 18.0.0, SVG Export Plug-In . SVG Version: 6.00 Build 0)  -->

<svg
   xmlns:dc="http://purl.org/dc/elements/1.1/"
   xmlns:cc="http://creativecommons.org/ns#"
   xmlns:rdf="http://www.w3.org/1999/02/22-rdf-syntax-ns#"
   xmlns:svg="http://www.w3.org/2000/svg"
   xmlns="http://www.w3.org/2000/svg"
   xmlns:sodipodi="http://sodipodi.sourceforge.net/DTD/sodipodi-0.dtd"
   xmlns:inkscape="http://www.inkscape.org/namespaces/inkscape"
   version="1.1"
   id="Capa_1"
   x="0px"
   y="0px"
   viewBox="0 0 58 58"
   style="enable-background:new 0 0 58 58;"
   xml:space="preserve"
   sodipodi:docname="circuit.svg"
   inkscape:version="0.92.4 (5da689c313, 2019-01-14)"><metadata
   id="metadata43"><rdf:RDF><cc:Work
       rdf:about=""><dc:format>image/svg+xml</dc:format><dc:type
         rdf:resource="http://purl.org/dc/dcmitype/StillImage" /></cc:Work></rdf:RDF></metadata><defs
   id="defs41" /><sodipodi:namedview
   pagecolor="#ffffff"
   bordercolor="#666666"
   borderopacity="1"
   objecttolerance="10"
   gridtolerance="10"
   guidetolerance="10"
   inkscape:pageopacity="0"
   inkscape:pageshadow="2"
   inkscape:window-width="2560"
   inkscape:window-height="1361"
   id="namedview39"
   showgrid="false"
   inkscape:zoom="11.508772"
   inkscape:cx="32.999434"
   inkscape:cy="40.269639"
   inkscape:window-x="-9"
   inkscape:window-y="-9"
   inkscape:window-maximized="1"
   inkscape:current-layer="Capa_1" />
<g
   id="g6"
   transform="rotate(90,29,28.999875)">
	<path
   d="m 33.923,50.618 c -0.051,-0.123 -0.124,-0.233 -0.217,-0.326 l -5.999,-5.999 c -0.391,-0.391 -1.023,-0.391 -1.414,0 -0.391,0.391 -0.391,1.023 0,1.414 L 30.586,50 H 22.774 C 17.936,50 14,46.063 14,41.226 V 13.92 C 17.387,13.432 20,10.519 20,7 20,3.141 16.86,0 13,0 9.14,0 6,3.141 6,7 c 0,3.519 2.613,6.432 6,6.92 V 41.225 C 12,47.167 16.833,52 22.774,52 h 7.812 l -4.293,4.293 c -0.391,0.391 -0.391,1.023 0,1.414 C 26.488,57.902 26.744,58 27,58 c 0.256,0 0.512,-0.098 0.707,-0.293 l 5.999,-5.999 c 0.093,-0.092 0.166,-0.203 0.217,-0.326 0.101,-0.244 0.101,-0.52 0,-0.764 z M 8,7 c 0,-2.757 2.243,-5 5,-5 2.757,0 5,2.243 5,5 0,2.757 -2.243,5 -5,5 C 10.243,12 8,9.757 8,7 Z"
   id="path2"
   inkscape:connector-curvature="0" />
	<path
   d="M 46,44.08 V 16.774 C 46,10.833 41.167,6 35.226,6 h -7.812 l 4.293,-4.293 c 0.391,-0.391 0.391,-1.023 0,-1.414 -0.391,-0.391 -1.023,-0.391 -1.414,0 l -5.999,5.999 c -0.093,0.092 -0.166,0.203 -0.217,0.326 -0.101,0.244 -0.101,0.52 0,0.764 0.051,0.123 0.124,0.233 0.217,0.326 l 5.999,5.999 C 30.488,13.902 30.744,14 31,14 c 0.256,0 0.512,-0.098 0.707,-0.293 0.391,-0.391 0.391,-1.023 0,-1.414 L 27.414,8 h 7.812 C 40.064,8 44,11.937 44,16.774 V 44.08 c -3.387,0.488 -6,3.401 -6,6.92 0,3.859 3.14,7 7,7 3.859,0 7,-3.141 7,-7 0,-3.519 -2.614,-6.432 -6,-6.92 z M 45,56 c -2.757,0 -5,-2.243 -5,-5 0,-2.757 2.243,-5 5,-5 2.757,0 5,2.243 5,5 0,2.757 -2.243,5 -5,5 z"
   id="path4"
   inkscape:connector-curvature="0" />
</g>
<g
   id="g8">
</g>
<g
   id="g10">
</g>
<g
   id="g12">
</g>
<g
   id="g14">
</g>
<g
   id="g16">
</g>
<g
   id="g18">
</g>
<g
   id="g20">
</g>
<g
   id="g22">
</g>
<g
   id="g24">
</g>
<g
   id="g26">
</g>
<g
   id="g28">
</g>
<g
   id="g30">
</g>
<g
   id="g32">
</g>
<g
   id="g34">
</g>
<g
   id="g36">
</g>
</svg>